<?xml version="1.0" encoding="utf-8"?>
<!-- Generator: Adobe Illustrator 25.0.0, SVG Export Plug-In . SVG Version: 6.00 Build 0)  -->
<svg version="1.1" id="Layer_1" xmlns="http://www.w3.org/2000/svg" xmlns:xlink="http://www.w3.org/1999/xlink" x="0px" y="0px"
	 viewBox="0 0 15.2 11.6" style="enable-background:new 0 0 15.2 11.6;" xml:space="preserve">
<g>
	<path style="fill:#14142B;" d="M14.9,4.7c-1.2-2.1-3-3.7-5-4.3C7.4-0.5,5,0.5,4.9,0.5C3,1.3,1.4,2.7,0.3,4.7
		c-0.4,0.7-0.4,1.5,0,2.2c1.7,3,4.4,4.7,7.3,4.7c2.1,0,4-0.9,5.7-2.5c0.1-0.1,1.3-1.3,1.9-2.7c0,0,0,0,0-0.1
		C15.3,5.8,15.2,5.2,14.9,4.7z M14.2,6.1c-0.5,1.1-1.6,2.3-1.6,2.3c-1.4,1.5-3.1,2.2-4.9,2.2c-2.6,0-4.9-1.5-6.5-4.2
		C0.9,6,0.9,5.6,1.2,5.2c1-1.8,2.5-3.1,4.1-3.8c0,0,1.1-0.4,2.5-0.4c0.6,0,1.3,0.1,2,0.3c1.7,0.6,3.3,2,4.4,3.9
		C14.2,5.5,14.3,5.8,14.2,6.1z"/>
	<path style="fill:#14142B;" d="M10.1,5.7c0-0.1,0-0.2,0-0.3c0-0.1,0-0.1,0-0.2c0,0,0,0,0-0.1l0,0c-0.2-0.9-1-1.6-1.9-1.8l0,0
		c0,0,0,0,0,0c0,0,0,0-0.1,0c-0.1,0-0.3,0-0.4,0c0,0,0,0-0.1,0c0,0-0.1,0-0.1,0c-0.1,0-0.2,0-0.3,0c-0.1,0-0.1,0-0.2,0
		c-0.1,0-0.2,0.1-0.3,0.1c0,0-0.1,0-0.1,0.1c0,0,0,0-0.1,0c-0.1,0-0.2,0.1-0.3,0.2c0,0,0,0,0,0C6.1,3.8,6,3.9,5.9,4
		c0,0,0,0.1-0.1,0.1C5.7,4.2,5.6,4.3,5.6,4.4c0,0-0.1,0.1-0.1,0.1c0,0-0.1,0.1-0.1,0.1c0,0,0,0.1-0.1,0.1c0,0.1,0,0.1-0.1,0.2
		c0,0.1-0.1,0.2-0.1,0.3c0,0.1,0,0.1,0,0.2c0,0.1,0,0.3,0,0.4c0,0,0,0,0,0c0,0,0,0,0,0c0,0.1,0,0.2,0,0.3c0,0,0,0,0,0.1
		c0,0.1,0,0.1,0,0.2c0,0.1,0.1,0.2,0.1,0.3c0,0.1,0,0.1,0.1,0.2c0,0.1,0.1,0.2,0.1,0.3c0,0,0.1,0.1,0.1,0.1c0.1,0.1,0.1,0.2,0.2,0.3
		c0,0,0,0,0.1,0.1c0,0,0,0,0,0C6,7.7,6.1,7.8,6.2,7.9c0,0,0.1,0,0.1,0C6.4,8,6.5,8,6.6,8.1c0.1,0,0.1,0,0.2,0.1
		c0.1,0,0.2,0.1,0.3,0.1c0.1,0,0.1,0,0.2,0c0,0,0.1,0,0.1,0c0.1,0,0.2,0,0.3,0c0,0,0,0,0,0c0.2,0,0.4,0,0.6-0.1c0.1,0,0.1,0,0.1,0
		c0.1,0,0.3-0.1,0.4-0.2c0,0,0.1,0,0.1,0c0,0,0.1,0,0.1-0.1c0,0,0.1-0.1,0.1-0.1c0.1-0.1,0.2-0.1,0.2-0.2c0,0,0.1-0.1,0.1-0.1
		c0.1-0.1,0.1-0.2,0.2-0.2c0,0,0.1-0.1,0.1-0.1C9.8,7,9.9,6.9,9.9,6.8C10,6.6,10,6.5,10.1,6.3c0,0,0-0.1,0-0.1c0-0.1,0-0.2,0-0.3
		C10.1,5.9,10.1,5.8,10.1,5.7C10.1,5.8,10.1,5.7,10.1,5.7z M9.1,5.5c0,0.1,0,0.3,0,0.4c0,0,0,0.1,0,0.1c0,0.1,0,0.3-0.1,0.4
		C8.9,6.5,8.9,6.6,8.8,6.8c0,0,0,0-0.1,0.1C8.6,6.9,8.5,7,8.4,7.1c0,0,0,0-0.1,0C8.1,7.3,7.8,7.3,7.5,7.3c0,0-0.1,0-0.1,0
		C7.3,7.3,7.1,7.2,7,7.2c0,0,0,0,0,0C6.8,7.1,6.7,7,6.6,6.9c0,0,0,0,0,0C6.5,6.8,6.4,6.7,6.3,6.5c0,0,0,0,0-0.1
		C6.2,6.3,6.2,6.2,6.1,6.1c0,0,0,0,0-0.1c0-0.1,0-0.3,0-0.4c0,0,0,0,0-0.1c0-0.1,0.1-0.3,0.1-0.4c0,0,0-0.1,0-0.1
		c0.1-0.1,0.2-0.2,0.3-0.3c0,0,0,0,0,0c0.1-0.1,0.2-0.2,0.3-0.2c0,0,0,0,0.1,0c0.1-0.1,0.3-0.1,0.4-0.1c0,0,0.1,0,0.1,0
		c0.1,0,0.3,0,0.4,0C8.5,4.5,8.9,4.9,9.1,5.5z"/>
</g>
</svg>
