<?xml version="1.0" encoding="utf-8"?>
<!-- Generator: Adobe Illustrator 25.0.0, SVG Export Plug-In . SVG Version: 6.00 Build 0)  -->
<svg version="1.1" id="Layer_1" xmlns="http://www.w3.org/2000/svg" xmlns:xlink="http://www.w3.org/1999/xlink" x="0px" y="0px"
	 viewBox="0 0 15.2 12.7" style="enable-background:new 0 0 15.2 12.7;" xml:space="preserve">
<g>
	<path style="fill:#14142B;" d="M4,0.1C3.8,0,3.5,0,3.3,0.1s-0.2,0.5,0,0.7l1,1c-1.6,0.8-3,2.2-4,3.9c-0.4,0.7-0.4,1.5,0,2.2
		c1.7,3,4.4,4.7,7.3,4.7c1.9,0,3.8-0.8,5.3-2.2l1,1c0.1,0.1,0.2,0.1,0.4,0.1s0.3,0,0.4-0.1c0.2-0.2,0.2-0.5,0-0.7L4,0.1z M9,7.5
		C8.9,7.8,8.7,8,8.4,8.2C8.1,8.3,7.8,8.4,7.4,8.4C7.1,8.3,6.8,8.2,6.6,8C6.3,7.7,6.2,7.4,6.1,7.1c-0.1-0.3,0-0.7,0.2-0.9
		S6.7,5.6,7,5.5c0.3-0.1,0.5-0.2,0.8-0.1l1.3,1.3C9.1,6.9,9.1,7.2,9,7.5z M7.6,11.7c-2.6,0-4.9-1.5-6.5-4.2c-0.2-0.4-0.2-0.8,0-1.2
		c1-1.7,2.3-3,3.9-3.7l1.9,1.9c-0.1,0-0.2,0.1-0.3,0.1C6.1,4.8,5.7,5.2,5.4,5.7c-0.3,0.5-0.3,1-0.3,1.6c0.1,0.5,0.3,1,0.7,1.4
		C6.3,9,6.8,9.3,7.3,9.4c0.1,0,0.2,0,0.3,0c0.4,0,0.9-0.1,1.3-0.3c0.5-0.3,0.8-0.7,1-1.2C10,7.8,10,7.7,10,7.6l2.2,2.2
		C10.9,11,9.3,11.7,7.6,11.7z"/>
	<path style="fill:#14142B;" d="M14.9,5.8c-1.2-2.1-3-3.7-5-4.3c-0.3-0.1-0.5,0-0.6,0.3C9.3,2,9.4,2.3,9.7,2.4
		c1.7,0.6,3.3,2,4.4,3.9c0.2,0.3,0.2,0.6,0.1,0.9c-0.1,0.3,0.1,0.5,0.3,0.6c0,0,0.1,0,0.1,0c0.2,0,0.4-0.1,0.5-0.4
		C15.3,6.9,15.2,6.3,14.9,5.8z"/>
</g>
</svg>
